<svg width="1920" height="845" viewBox="0 0 1920 845" fill="none" xmlns="http://www.w3.org/2000/svg">
<g clip-path="url(#clip0)">
<path d="M1920 0H0V1920H1920V0Z" fill="white"/>
<path d="M960 2400C1755.29 2400 2400 1755.29 2400 960C2400 164.71 1755.29 -480 960 -480C164.71 -480 -480 164.71 -480 960C-480 1755.29 164.71 2400 960 2400Z" fill="white"/>
<path d="M960 2160C1622.74 2160 2160 1622.74 2160 960C2160 297.258 1622.74 -240 960 -240C297.258 -240 -240 297.258 -240 960C-240 1622.74 297.258 2160 960 2160Z" fill="#E7DEFF"/>
<path d="M960 1920C1490.19 1920 1920 1490.19 1920 960C1920 429.807 1490.19 0 960 0C429.807 0 0 429.807 0 960C0 1490.19 429.807 1920 960 1920Z" fill="#CEBEFF"/>
<path d="M960 1680C1357.65 1680 1680 1357.65 1680 960C1680 562.355 1357.65 240 960 240C562.355 240 240 562.355 240 960C240 1357.65 562.355 1680 960 1680Z" fill="#B29FFF"/>
<path d="M960 1440C1225.1 1440 1440 1225.1 1440 960C1440 694.903 1225.1 480 960 480C694.903 480 480 694.903 480 960C480 1225.1 694.903 1440 960 1440Z" fill="#9381FF"/>
<path d="M960 1200C1092.55 1200 1200 1092.55 1200 960C1200 827.452 1092.55 720 960 720C827.452 720 720 827.452 720 960C720 1092.55 827.452 1200 960 1200Z" fill="#6C63FF"/>
<rect width="1920" height="1416" fill="white" fill-opacity="0.65"/>
</g>
<defs>
<clipPath id="clip0">
<rect width="1920" height="1920" fill="white"/>
</clipPath>
</defs>
</svg>
