<svg width="666" height="285" viewBox="0 0 666 285" fill="none" xmlns="http://www.w3.org/2000/svg">
<g clip-path="url(#clip0)">
<path d="M146.183 158.995C146.189 158.12 146.014 157.253 145.67 156.449C145.326 155.645 144.819 154.92 144.182 154.32C143.545 153.72 142.791 153.258 141.967 152.962C141.143 152.666 140.267 152.543 139.393 152.601C138.519 152.658 137.667 152.895 136.889 153.297C136.111 153.698 135.425 154.256 134.872 154.934C134.319 155.613 133.913 156.398 133.677 157.241C133.442 158.083 133.383 158.965 133.504 159.831L115.203 183.775C114.422 185.335 114.12 187.091 114.333 188.822C114.546 190.554 115.266 192.184 116.403 193.508L117.838 195.181L124.425 193.865L131.891 187.284L131.012 179.826L140.234 165.348L140.222 165.338C141.837 165.235 143.351 164.522 144.458 163.344C145.565 162.166 146.182 160.611 146.183 158.995Z" fill="#FFB9B9"/>
<path d="M19.6249 276.05L16.6375 264.965L58.0105 248.18L62.4194 264.539L19.6249 276.05Z" fill="#FFB8B8"/>
<path d="M9.6319 281.77L0 246.029L0.452483 245.908C4.14541 244.914 8.082 245.427 11.3964 247.334C14.7108 249.24 17.1315 252.383 18.1261 256.073L18.1263 256.074L24.0091 277.903L9.6319 281.77Z" fill="#2F2E41"/>
<path d="M76.6144 274.279L67.3223 267.528L88.9658 228.506L102.681 238.47L76.6144 274.279Z" fill="#FFB8B8"/>
<path d="M72.434 285L42.471 263.231L42.7466 262.852C44.996 259.762 48.3819 257.691 52.1595 257.095C55.937 256.499 59.7969 257.426 62.8901 259.673L62.8908 259.674L81.1912 272.97L72.434 285Z" fill="#2F2E41"/>
<path d="M155.604 219.75L132.22 197.056C130.18 195.075 127.492 193.897 124.651 193.739C121.81 193.58 119.007 194.451 116.759 196.193L72.6064 245.196L76.5588 251.338L118.716 222.821L147.26 260.112L174.487 246.512L155.604 219.75Z" fill="#2F2E41"/>
<path d="M145.504 224.576L128.377 223.26L115.974 220.256C115.274 219.164 114.256 218.312 113.058 217.814C111.859 217.316 110.536 217.195 109.267 217.469C107.998 217.742 106.843 218.396 105.957 219.344C105.07 220.291 104.494 221.487 104.307 222.77C104.119 224.053 104.328 225.363 104.906 226.525C105.484 227.686 106.403 228.643 107.541 229.268C108.679 229.893 109.98 230.156 111.271 230.021C112.563 229.887 113.782 229.361 114.766 228.516L114.764 228.525L122.23 231.596L154.287 242.564L158.239 239.493L145.504 224.576Z" fill="#FFB9B9"/>
<path d="M186.783 271.959L177.122 278.101H165.704L112.568 258.358L34.8403 272.397L32.6447 255.725L103.786 224.576L166.144 245.196L186.783 271.959Z" fill="#2F2E41"/>
<path d="M166.144 165.348C175.603 165.348 183.27 157.688 183.27 148.238C183.27 138.788 175.603 131.128 166.144 131.128C156.685 131.128 149.017 138.788 149.017 148.238C149.017 157.688 156.685 165.348 166.144 165.348Z" fill="#FFB9B9"/>
<path d="M210.458 216.552C210.457 226.878 208.829 237.14 205.631 246.96L204.349 250.899L198.201 278.978L191.614 280.733L186.783 274.591L177.122 267.571L170.096 256.164L164.071 246.135L162.192 243.002L155.604 210.098L130.573 196.059L122.23 194.743L123.986 189.917L131.452 179.826L138.917 178.949L141.113 177.194L142.869 178.071L152.552 181.798L183.947 168.547L188.54 169.297L204.349 182.458C208.391 193.372 210.459 204.916 210.458 216.552Z" fill="#CCCCCC"/>
<path opacity="0.1" d="M205.666 212.731L188.979 223.698L164.071 246.135L162.192 243.002L156.922 216.679H158.239L171.853 191.672L205.666 212.731Z" fill="black"/>
<path d="M171.853 189.039L158.239 214.046L150.335 222.821L143.309 224.576L162.192 245.196L188.979 221.066L205.666 210.098L171.853 189.039Z" fill="#CCCCCC"/>
<path d="M152.823 135.516L150.967 136.229C150.686 136.038 150.444 135.794 150.257 135.511C150.07 135.227 149.94 134.909 149.876 134.575C149.812 134.242 149.814 133.899 149.882 133.566C149.95 133.233 150.084 132.917 150.275 132.635C150.285 132.62 150.295 132.606 150.305 132.591L146.876 132.431C149.077 129.502 151.876 127.073 155.087 125.306C158.298 123.538 161.848 122.472 165.502 122.178C169.157 121.884 172.832 122.368 176.285 123.599C179.738 124.83 182.89 126.779 185.532 129.318C185.688 128.781 187.39 129.826 188.085 130.886C188.319 130.012 189.914 134.237 190.479 137.224C190.74 136.23 191.745 137.835 190.864 139.376C191.422 139.294 191.674 140.72 191.242 141.514C191.852 141.228 191.75 142.929 191.088 144.067C191.959 143.989 191.014 161.904 177.948 160.599C177.039 156.424 177.295 156.683 176.224 151.314C175.726 150.785 175.18 150.304 174.635 149.823L171.687 147.224C168.259 144.201 165.14 140.47 160.574 139.34C157.436 138.563 155.451 138.388 157.161 134.855C155.616 135.499 154.173 136.457 152.614 137.056C152.635 136.562 152.853 136.01 152.823 135.516Z" fill="#2F2E41"/>
<path d="M174.707 153.283C176.405 153.283 177.781 151.908 177.781 150.212C177.781 148.516 176.405 147.141 174.707 147.141C173.009 147.141 171.633 148.516 171.633 150.212C171.633 151.908 173.009 153.283 174.707 153.283Z" fill="#FFB9B9"/>
<path d="M31.3555 77.68L30.4174 91.7527L44.5035 92.6899L45.4416 78.6172L31.3555 77.68Z" fill="#E6E6E6"/>
<path d="M22.2672 85.1525L39.3717 86.2905L38.2325 103.379L21.1281 102.241L22.2672 85.1525ZM38.5784 86.984L22.9613 85.945L21.9213 101.547L37.5384 102.586L38.5784 86.984Z" fill="#CCCCCC"/>
<path d="M110.958 35.9504L97.1559 38.9132L100.122 52.7023L113.924 49.7395L110.958 35.9504Z" fill="#E6E6E6"/>
<path d="M101.27 29.2715L104.872 46.0154L88.1118 49.6131L84.5107 32.8692L101.27 29.2715ZM103.986 45.4438L100.698 30.1559L85.3959 33.4408L88.6839 48.7287L103.986 45.4438Z" fill="#CCCCCC"/>
<path d="M96.4552 102.171L86.1519 111.812L95.8028 122.106L106.106 112.464L96.4552 102.171Z" fill="#E6E6E6"/>
<path d="M106.847 100.728L94.3357 112.436L82.6169 99.9367L95.128 88.2289L106.847 100.728ZM94.3702 111.383L105.793 100.694L95.0936 89.2814L83.6703 99.9711L94.3702 111.383Z" fill="#CCCCCC"/>
<path d="M629.281 0H211.591C210.081 -1.71414e-06 208.586 0.297082 207.191 0.87429C205.797 1.4515 204.529 2.29752 203.462 3.36406C202.394 4.4306 201.547 5.69677 200.97 7.09028C200.392 8.48378 200.094 9.97733 200.094 11.4856V243.994C200.094 245.502 200.392 246.996 200.969 248.389C201.547 249.783 202.394 251.049 203.462 252.115C204.529 253.182 205.797 254.028 207.191 254.605C208.586 255.182 210.081 255.479 211.591 255.479H629.281C632.331 255.479 635.255 254.269 637.411 252.115C639.567 249.961 640.778 247.04 640.778 243.994V11.4856C640.778 8.43946 639.567 5.51805 637.411 3.36407C635.255 1.21009 632.331 1.73094e-06 629.281 0Z" fill="#3F3D56"/>
<path d="M625.365 20.2984H215.508V251.28H625.365V20.2984Z" fill="white"/>
<path d="M420.086 13.9989C422.408 13.9989 424.29 12.1186 424.29 9.79921C424.29 7.4798 422.408 5.59956 420.086 5.59956C417.764 5.59956 415.882 7.4798 415.882 9.79921C415.882 12.1186 417.764 13.9989 420.086 13.9989Z" fill="white"/>
<path d="M508.152 251.28H215.508V20.2987L508.152 251.28Z" fill="#F2F2F2"/>
<path d="M279.638 233.995C301.396 233.995 319.035 216.374 319.035 194.636C319.035 172.899 301.396 155.277 279.638 155.277C257.88 155.277 240.241 172.899 240.241 194.636C240.241 216.374 257.88 233.995 279.638 233.995Z" fill="#6C63FF"/>
<path d="M288.408 224.218C278.716 224.218 269.241 221.347 261.182 215.967C253.123 210.588 246.842 202.941 243.133 193.995C239.424 185.049 238.453 175.205 240.344 165.708C242.235 156.211 246.902 147.487 253.756 140.64C260.61 133.793 269.342 129.13 278.848 127.241C288.354 125.352 298.207 126.321 307.162 130.027C316.117 133.733 323.77 140.008 329.155 148.059C334.54 156.11 337.414 165.576 337.414 175.259C337.414 181.689 336.146 188.055 333.684 193.995C331.221 199.935 327.611 205.332 323.06 209.879C318.51 214.425 313.108 218.031 307.162 220.492C301.216 222.952 294.844 224.218 288.408 224.218ZM288.408 126.94C278.843 126.94 269.492 129.774 261.538 135.083C253.584 140.393 247.385 147.939 243.725 156.768C240.064 165.597 239.106 175.313 240.972 184.686C242.839 194.059 247.445 202.668 254.209 209.426C260.973 216.183 269.591 220.785 278.973 222.65C288.355 224.514 298.079 223.557 306.917 219.9C315.754 216.243 323.308 210.05 328.622 202.104C333.937 194.158 336.773 184.816 336.773 175.259C336.773 168.914 335.522 162.631 333.092 156.768C330.661 150.906 327.099 145.579 322.608 141.093C318.116 136.606 312.785 133.047 306.917 130.618C301.049 128.19 294.76 126.94 288.408 126.94L288.408 126.94Z" fill="#3F3D56"/>
<path d="M530.484 140.3H492.199V148.292H530.484V140.3Z" fill="#3F3D56"/>
<path d="M566.705 97.0013H455.978V100.427H566.705V97.0013Z" fill="#3F3D56"/>
<path d="M566.705 110.459H455.978V113.884H566.705V110.459Z" fill="#3F3D56"/>
<path d="M566.705 123.916H455.978V127.341H566.705V123.916Z" fill="#3F3D56"/>
<path d="M596.367 34.1216H580.367V50.1061H596.367V34.1216Z" fill="#6C63FF"/>
<path d="M603.796 57.5275H584.367V38.1177H603.796V57.5275ZM585.212 56.6836H602.951V38.9616H585.212L585.212 56.6836Z" fill="#CCCCCC"/>
<path d="M652.286 247.08H612.287V244.201C612.287 244.126 612.272 244.052 612.243 243.982C612.214 243.913 612.172 243.85 612.119 243.797C612.066 243.744 612.003 243.702 611.934 243.673C611.865 243.645 611.79 243.63 611.715 243.63H598.001C597.926 243.63 597.852 243.645 597.782 243.673C597.713 243.702 597.65 243.744 597.597 243.797C597.544 243.85 597.502 243.913 597.473 243.982C597.444 244.052 597.43 244.126 597.43 244.201V247.08H588.858V244.201C588.858 244.126 588.844 244.052 588.815 243.982C588.786 243.913 588.744 243.85 588.691 243.797C588.638 243.744 588.575 243.702 588.506 243.673C588.436 243.645 588.362 243.63 588.287 243.63H574.573C574.498 243.63 574.424 243.645 574.354 243.673C574.285 243.702 574.222 243.744 574.169 243.797C574.116 243.85 574.074 243.913 574.045 243.982C574.016 244.052 574.002 244.126 574.002 244.201V247.08H565.43V244.201C565.43 244.126 565.415 244.052 565.387 243.982C565.358 243.913 565.316 243.85 565.263 243.797C565.21 243.744 565.147 243.702 565.077 243.673C565.008 243.645 564.934 243.63 564.859 243.63H551.145C551.07 243.63 550.995 243.645 550.926 243.673C550.857 243.702 550.794 243.744 550.741 243.797C550.688 243.85 550.645 243.913 550.617 243.982C550.588 244.052 550.573 244.126 550.573 244.201V247.08H542.002V244.201C542.002 244.126 541.987 244.052 541.959 243.982C541.93 243.913 541.888 243.85 541.835 243.797C541.782 243.744 541.719 243.702 541.649 243.673C541.58 243.645 541.506 243.63 541.431 243.63H527.717C527.642 243.63 527.567 243.645 527.498 243.673C527.428 243.702 527.366 243.744 527.312 243.797C527.259 243.85 527.217 243.913 527.189 243.982C527.16 244.052 527.145 244.126 527.145 244.201V247.08H518.574V244.201C518.574 244.126 518.559 244.052 518.53 243.982C518.502 243.913 518.46 243.85 518.406 243.797C518.353 243.744 518.29 243.702 518.221 243.673C518.152 243.645 518.077 243.63 518.002 243.63H504.288C504.213 243.63 504.139 243.645 504.07 243.673C504 243.702 503.937 243.744 503.884 243.797C503.831 243.85 503.789 243.913 503.76 243.982C503.732 244.052 503.717 244.126 503.717 244.201V247.08H495.146V244.201C495.146 244.126 495.131 244.052 495.102 243.982C495.073 243.913 495.031 243.85 494.978 243.797C494.925 243.744 494.862 243.702 494.793 243.673C494.724 243.645 494.649 243.63 494.574 243.63H480.86C480.785 243.63 480.711 243.645 480.641 243.673C480.572 243.702 480.509 243.744 480.456 243.797C480.403 243.85 480.361 243.913 480.332 243.982C480.303 244.052 480.289 244.126 480.289 244.201V247.08H471.717V244.201C471.717 244.126 471.703 244.052 471.674 243.982C471.645 243.913 471.603 243.85 471.55 243.797C471.497 243.744 471.434 243.702 471.365 243.673C471.295 243.645 471.221 243.63 471.146 243.63H363.719C363.644 243.63 363.57 243.645 363.5 243.673C363.431 243.702 363.368 243.744 363.315 243.797C363.262 243.85 363.22 243.913 363.191 243.982C363.162 244.052 363.148 244.126 363.148 244.201V247.08H354.576V244.201C354.576 244.126 354.562 244.052 354.533 243.982C354.504 243.913 354.462 243.85 354.409 243.797C354.356 243.744 354.293 243.702 354.224 243.673C354.154 243.645 354.08 243.63 354.005 243.63H340.291C340.216 243.63 340.142 243.645 340.072 243.673C340.003 243.702 339.94 243.744 339.887 243.797C339.834 243.85 339.792 243.913 339.763 243.982C339.734 244.052 339.72 244.126 339.72 244.201V247.08H331.148V244.201C331.148 244.126 331.133 244.052 331.105 243.982C331.076 243.913 331.034 243.85 330.981 243.797C330.928 243.744 330.865 243.702 330.796 243.673C330.726 243.645 330.652 243.63 330.577 243.63H316.863C316.788 243.63 316.713 243.645 316.644 243.673C316.575 243.702 316.512 243.744 316.459 243.797C316.406 243.85 316.363 243.913 316.335 243.982C316.306 244.052 316.291 244.126 316.291 244.201V247.08H307.72V244.201C307.72 244.126 307.705 244.052 307.676 243.982C307.648 243.913 307.606 243.85 307.553 243.797C307.5 243.744 307.437 243.702 307.367 243.673C307.298 243.645 307.224 243.63 307.149 243.63H293.435C293.359 243.63 293.285 243.645 293.216 243.673C293.146 243.702 293.084 243.744 293.03 243.797C292.977 243.85 292.935 243.913 292.907 243.982C292.878 244.052 292.863 244.126 292.863 244.201V247.08H284.292V244.201C284.292 244.126 284.277 244.052 284.248 243.982C284.22 243.913 284.177 243.85 284.124 243.797C284.071 243.744 284.008 243.702 283.939 243.673C283.87 243.645 283.795 243.63 283.72 243.63H270.006C269.931 243.63 269.857 243.645 269.788 243.673C269.718 243.702 269.655 243.744 269.602 243.797C269.549 243.85 269.507 243.913 269.478 243.982C269.45 244.052 269.435 244.126 269.435 244.201V247.08H260.864V244.201C260.864 244.126 260.849 244.052 260.82 243.982C260.791 243.913 260.749 243.85 260.696 243.797C260.643 243.744 260.58 243.702 260.511 243.673C260.442 243.645 260.367 243.63 260.292 243.63H246.578C246.427 243.63 246.281 243.69 246.174 243.797C246.067 243.904 246.007 244.049 246.007 244.201V247.08H237.435V244.201C237.435 244.126 237.421 244.052 237.392 243.982C237.363 243.913 237.321 243.85 237.268 243.797C237.215 243.744 237.152 243.702 237.083 243.673C237.013 243.645 236.939 243.63 236.864 243.63H223.15C222.998 243.63 222.853 243.69 222.746 243.797C222.639 243.904 222.578 244.049 222.578 244.201V247.08H196.293C192.656 247.08 189.168 248.524 186.596 251.093C184.024 253.662 182.579 257.147 182.579 260.781V266.976C182.579 270.61 184.024 274.095 186.596 276.664C189.168 279.234 192.656 280.677 196.293 280.677H652.286C655.923 280.677 659.411 279.234 661.983 276.664C664.555 274.095 666 270.61 666 266.976V260.781C666 258.982 665.645 257.2 664.956 255.538C664.267 253.876 663.257 252.365 661.983 251.093C660.71 249.821 659.198 248.812 657.534 248.123C655.87 247.434 654.087 247.08 652.286 247.08Z" fill="#3F3D56"/>
</g>
<defs>
<clipPath id="clip0">
<rect width="666" height="285" fill="white"/>
</clipPath>
</defs>
</svg>
