<svg width="1455" height="1388" viewBox="0 0 1455 1388" fill="none" xmlns="http://www.w3.org/2000/svg">
<g clip-path="url(#clip0)">
<path d="M1455 -1027H-960V1388H1455V-1027Z" fill="white"/>
<path d="M247.5 1991.75C1247.83 1991.75 2058.75 1180.83 2058.75 180.5C2058.75 -819.826 1247.83 -1630.75 247.5 -1630.75C-752.826 -1630.75 -1563.75 -819.826 -1563.75 180.5C-1563.75 1180.83 -752.826 1991.75 247.5 1991.75Z" fill="white"/>
<path d="M247.5 1689.88C1081.1 1689.88 1756.88 1014.1 1756.88 180.5C1756.88 -653.105 1081.1 -1328.88 247.5 -1328.88C-586.105 -1328.88 -1261.88 -653.105 -1261.88 180.5C-1261.88 1014.1 -586.105 1689.88 247.5 1689.88Z" fill="#E7DEFF"/>
<path d="M247.5 1388C914.384 1388 1455 847.384 1455 180.5C1455 -486.384 914.384 -1027 247.5 -1027C-419.384 -1027 -960 -486.384 -960 180.5C-960 847.384 -419.384 1388 247.5 1388Z" fill="#CEBEFF"/>
<path d="M247.5 1086.12C747.663 1086.12 1153.12 680.663 1153.12 180.5C1153.12 -319.663 747.663 -725.125 247.5 -725.125C-252.663 -725.125 -658.125 -319.663 -658.125 180.5C-658.125 680.663 -252.663 1086.12 247.5 1086.12Z" fill="#B29FFF"/>
<path d="M247.5 784.25C580.942 784.25 851.25 513.942 851.25 180.5C851.25 -152.942 580.942 -423.25 247.5 -423.25C-85.9419 -423.25 -356.25 -152.942 -356.25 180.5C-356.25 513.942 -85.9419 784.25 247.5 784.25Z" fill="#9381FF"/>
<path d="M247.5 482.375C414.221 482.375 549.375 347.221 549.375 180.5C549.375 13.779 414.221 -121.375 247.5 -121.375C80.779 -121.375 -54.375 13.779 -54.375 180.5C-54.375 347.221 80.779 482.375 247.5 482.375Z" fill="#6C63FF"/>
<rect x="-960" y="-1027" width="2415" height="2415" fill="white" fill-opacity="0.8"/>
</g>
<defs>
<clipPath id="clip0">
<rect width="2415" height="2415" fill="white" transform="translate(-960 -1027)"/>
</clipPath>
</defs>
</svg>
